<svg height="512pt" viewBox="0 -98 512 512" width="512pt" xmlns="http://www.w3.org/2000/svg"><path d="m7.5 7.5h142.535156v300.074219h-142.535156zm0 0" fill="#fe3934"/><path d="m7.5 7.5h30.007812v300.074219h-30.007812zm0 0" fill="#dd2323"/><path d="m5.625 305.699219 142.535156-61.890625v61.890625zm0 0" fill="#afc4d9"/><path d="m7.5 193.171875h60.015625v45.011719h-60.015625zm0 0" fill="#fff"/><path d="m184.296875 7.5h142.53125v300.074219h-142.53125zm0 0" fill="#fe3934"/><path d="m185.671875 230.679688 142.535156-63.765626v140.660157h-144.414062zm0 0" fill="#afc4d9"/><path d="m184.285156 45.011719c36.191406 7.941406 63.273438 40.191406 63.273438 78.765625 0 38.578125-27.082032 70.828125-63.273438 78.769531" fill="#fef0bd"/><path d="m149.546875 202.550781c-36.191406-7.945312-63.277344-40.195312-63.277344-78.769531 0-38.578125 27.085938-70.828125 63.277344-78.769531" fill="#afc4d9"/><path d="m361.964844 7.5h142.535156v300.074219h-142.535156zm0 0" fill="#fe3934"/><path d="m226.929688 262.5625h48.761718v45.011719h-48.761718zm0 0" fill="#fef0bd"/><path d="m457.613281 112.527344-45.011719 16.878906v-71.265625h45.011719zm0 0" fill="#fff"/><path d="m361.964844 155.664062 144.410156-63.765624-1.875 215.675781h-142.535156zm0 0" fill="#afc4d9"/><path d="m421.976562 305.699219 82.523438-90.023438-1.878906 90.023438zm0 0" fill="#fef0bd"/><path d="m457.613281 180.042969h-45.011719v-45.011719l46.886719-22.503906zm0 0" fill="#fef0bd"/><path d="m277.566406 155.664062h15.003906v76.894532h-15.003906zm0 0" fill="#fff"/><path d="m75.019531 247.558594h-67.519531v-15h52.515625v-30.007813h-50.636719v-15.003906h65.640625zm0 0"/><path d="m24.703125 84.714844 52.511719-52.511719 10.609375 10.609375-52.511719 52.511719zm0 0" fill="#fff"/><path d="m0 315.078125h157.539062v-315.078125h-157.539062zm43.632812-15.003906 98.902344-42.921875v42.921875zm98.902344-107.324219c-12.582031-4.460938-23.863281-12.371094-32.378906-22.835938-10.566406-12.980468-16.382812-29.363281-16.382812-46.136718 0-16.769532 5.816406-33.152344 16.382812-46.132813 8.515625-10.464843 19.796875-18.375 32.378906-22.835937zm0-177.746094v24.070313c-17.167968 4.949219-32.644531 15.128906-44.015625 29.097656-12.738281 15.648437-19.75 35.398437-19.75 55.609375s7.011719 39.957031 19.75 55.605469c11.371094 13.96875 26.847657 24.152343 44.015625 29.101562v32.308594l-127.53125 55.34375v-281.136719zm0 0"/><path d="m176.792969 315.078125h157.539062v-315.078125h-157.539062zm93.273437-15.003906h-37.507812v-30.007813h37.507812zm-78.269531-245.085938c12.378906 4.496094 23.476563 12.332031 31.878906 22.65625 10.5625 12.980469 16.382813 29.363281 16.382813 46.136719 0 16.769531-5.820313 33.15625-16.382813 46.136719-8.402343 10.320312-19.5 18.160156-31.878906 22.652343zm0 153.355469c16.96875-5.003906 32.257813-15.125 43.515625-28.957031 12.734375-15.648438 19.75-35.394531 19.75-55.605469s-7.015625-39.960938-19.75-55.609375c-11.257812-13.832031-26.546875-23.953125-43.515625-28.953125v-24.214844h127.53125v149.074219l-127.53125 55.34375zm0 27.433594 127.53125-55.347656v119.640624h-34.257813v-45.007812h-67.515624v45.007812h-25.757813zm0 0"/><path d="m354.460938 0v315.078125h157.539062v-315.078125zm142.535156 300.074219h-63.675782l63.675782-69.097657zm0-91.238281-84.078125 91.234374h-43.453125v-141.398437l35.632812-15.460937v44.332031h60.015625v-70.378907l31.882813-13.835937zm-46.886719-85.160157v48.867188h-30.007813v-35.84375zm-30.007813-3.332031v-52.828125h30.007813v39.804687zm76.894532-33.367188-31.882813 13.835938v-48.300781h-60.015625v74.34375l-35.632812 15.464843v-127.316406h127.53125zm0 0"/></svg>